<svg width="106" height="118" viewBox="0 0 106 118" fill="none" xmlns="http://www.w3.org/2000/svg">
<path d="M8 114.547V30.8867C8 17.7409 8 11.1652 11.66 7.08262C15.32 3 21.215 3 33 3H48C59.785 3 65.68 3 69.34 7.08262C73 11.1652 73 17.7409 73 30.8867V114.547M3 114.547H78M8 53.1961H73M98 39.4034L100.235 38.1652C101.585 37.4234 102.255 37.0497 102.625 36.386C103 35.7167 103 34.8913 103 33.2292V29.3585C103 25.7723 103 23.9764 102.13 23.151C101.854 22.8885 101.53 22.6963 101.18 22.5876C100.07 22.2419 98.715 23.2402 96.01 25.2313C92.535 27.7857 90.8 29.0629 89.69 30.8867C89.3243 31.4926 89.0128 32.1371 88.76 32.8109C88 34.8355 88 37.1334 88 41.7458V50.8536C88 52.1476 88.95 53.1961 90.125 53.1961C90.9706 53.1987 91.7977 52.9199 92.5004 52.3953C93.2032 51.8707 93.7497 51.1242 94.07 50.2513L98 39.4034Z" stroke="white" stroke-width="6" stroke-linecap="round" stroke-linejoin="round"/>
<path d="M90.3897 53.1962C91.3897 60.9264 93.7247 69.7609 92.7747 77.6249C91.9197 84.7472 86.8647 90.4975 80.2147 91.9085C78.6647 92.2376 76.7747 92.2376 72.9997 92.2376M44.2497 69.9282L34.5197 80.62C33.3347 82.0534 32.7397 82.7673 33.1097 83.3194C33.4747 83.8716 34.5447 83.8716 36.6847 83.8716H44.3097C46.4547 83.8716 47.5247 83.8716 47.8897 84.4237C48.2597 84.9815 47.6647 85.6898 46.4797 87.1232L36.6847 97.8149" stroke="white" stroke-width="6" stroke-linecap="round" stroke-linejoin="round"/>
</svg>
